<svg width="53" height="44" viewBox="0 0 53 44" fill="none" xmlns="http://www.w3.org/2000/svg">
<rect x="23.2827" y="23.8133" width="3.30195" height="3.30195" fill="black"/>
<rect x="23.2827" y="20.5113" width="3.30195" height="3.30195" fill="black"/>
<rect x="23.2827" y="17.2094" width="3.30195" height="3.30195" fill="black"/>
<rect x="23.2827" y="13.9075" width="3.30195" height="3.30195" fill="black"/>
<rect x="23.2827" y="10.6055" width="3.30195" height="3.30195" fill="black"/>
<rect x="19.9805" y="10.6055" width="3.30195" height="3.30195" fill="black"/>
<rect x="16.6787" y="13.9075" width="3.30195" height="3.30195" fill="black"/>
<rect x="13.3767" y="20.5113" width="3.30195" height="3.30195" fill="black"/>
<rect x="0.168945" y="20.5113" width="3.30195" height="3.30195" fill="black"/>
<rect x="13.3767" y="7.30354" width="3.30195" height="3.30195" fill="black"/>
<rect x="6.77295" y="17.2094" width="3.30195" height="3.30195" fill="black"/>
<rect x="19.9805" y="7.30354" width="3.30195" height="3.30195" fill="black"/>
<rect x="16.6787" y="0.699677" width="3.30195" height="3.30195" fill="black"/>
<rect x="26.5845" y="17.2094" width="3.30195" height="3.30195" fill="black"/>
<rect x="26.5845" y="13.9075" width="3.30195" height="3.30195" fill="black"/>
<rect x="26.5845" y="10.6055" width="3.30195" height="3.30195" fill="black"/>
<rect x="29.8865" y="13.9075" width="3.30195" height="3.30195" fill="black"/>
<rect x="29.8865" y="17.2094" width="3.30195" height="3.30195" fill="black"/>
<rect x="33.1885" y="20.5113" width="3.30195" height="3.30195" fill="black"/>
<rect x="36.4905" y="20.5113" width="3.30195" height="3.30195" fill="black"/>
<rect x="33.1885" y="23.8133" width="3.30195" height="3.30195" fill="black"/>
<rect x="36.4905" y="23.8133" width="3.30195" height="3.30195" fill="black"/>
<rect x="33.1885" y="17.2094" width="3.30195" height="3.30195" fill="black"/>
<rect x="23.2827" y="7.30354" width="3.30195" height="3.30195" fill="black"/>
<rect x="19.9805" y="4.00162" width="3.30195" height="3.30195" fill="black"/>
<rect x="26.5845" y="20.5113" width="3.30195" height="3.30195" fill="black"/>
<rect x="26.5845" y="23.8133" width="3.30195" height="3.30195" fill="black"/>
<rect x="26.5845" y="27.1153" width="3.30195" height="3.30195" fill="black"/>
<rect x="29.8865" y="20.5113" width="3.30195" height="3.30195" fill="black"/>
<rect x="29.8865" y="23.8133" width="3.30195" height="3.30195" fill="black"/>
<rect x="29.8865" y="27.1153" width="3.30195" height="3.30195" fill="black"/>
<rect x="33.1885" y="27.1153" width="3.30195" height="3.30195" fill="black"/>
<rect x="26.5845" y="30.4172" width="3.30195" height="3.30195" fill="black"/>
<rect x="29.8865" y="30.4172" width="3.30195" height="3.30195" fill="black"/>
<rect x="23.2827" y="30.4172" width="3.30195" height="3.30195" fill="black"/>
<rect x="13.3767" y="30.4172" width="3.30195" height="3.30195" fill="black"/>
<rect x="26.5845" y="33.7191" width="3.30195" height="3.30195" fill="black"/>
<rect x="29.8865" y="33.7191" width="3.30195" height="3.30195" fill="black"/>
<rect x="23.2827" y="33.7191" width="3.30195" height="3.30195" fill="black"/>
<rect x="19.9805" y="33.7191" width="3.30195" height="3.30195" fill="black"/>
<rect x="16.6787" y="33.7191" width="3.30195" height="3.30195" fill="black"/>
<rect x="13.3767" y="33.7191" width="3.30195" height="3.30195" fill="black"/>
<rect x="10.075" y="33.7191" width="3.30195" height="3.30195" fill="black"/>
<rect x="33.1885" y="33.7191" width="3.30195" height="3.30195" fill="black"/>
<rect x="36.4905" y="33.7191" width="3.30195" height="3.30195" fill="black"/>
<rect x="39.7925" y="33.7191" width="3.30195" height="3.30195" fill="black"/>
<rect x="43.0942" y="33.7191" width="3.30195" height="3.30195" fill="black"/>
<rect x="46.3962" y="30.4172" width="3.30195" height="3.30195" fill="black"/>
<rect x="49.6982" y="30.4172" width="3.30195" height="3.30195" fill="black"/>
<rect x="36.4905" y="37.0211" width="3.30195" height="3.30195" fill="black"/>
<rect x="33.1885" y="40.3231" width="3.30195" height="3.30195" fill="black"/>
<rect x="26.5845" y="40.3231" width="3.30195" height="3.30195" fill="black"/>
<rect x="29.8865" y="40.3231" width="3.30195" height="3.30195" fill="black"/>
<rect x="23.2827" y="40.3231" width="3.30195" height="3.30195" fill="black"/>
<rect x="19.9805" y="40.3231" width="3.30195" height="3.30195" fill="black"/>
<rect x="16.6787" y="40.3231" width="3.30195" height="3.30195" fill="black"/>
<rect x="13.3767" y="40.3231" width="3.30195" height="3.30195" fill="black"/>
<rect x="10.075" y="37.0211" width="3.30195" height="3.30195" fill="black"/>
<rect x="6.77295" y="33.7191" width="3.30195" height="3.30195" fill="black"/>
</svg>
